<svg width="385" height="360" viewBox="0 0 385 360" fill="none" xmlns="http://www.w3.org/2000/svg">
<ellipse cx="192.59" cy="248.598" rx="192.41" ry="111.088" fill="#F0F0F0"/>
<ellipse cx="152.773" cy="294.475" rx="66.351" ry="38.308" fill="#E0E0E0"/>
<path d="M341.457 246.549L333.676 242.057C333.676 242.057 331.771 225.395 333.039 212.49C334.82 194.357 346.531 172.539 360.501 177.663C374.471 182.787 354.096 201.254 349.56 216.633C345.024 232.012 341.457 246.549 341.457 246.549Z" fill="#27DEBF"/>
<path opacity="0.15" d="M341.457 246.549L333.676 242.057C333.676 242.057 331.771 225.395 333.039 212.49C334.82 194.357 346.531 172.539 360.501 177.663C374.471 182.787 354.096 201.254 349.56 216.633C345.024 232.012 341.457 246.549 341.457 246.549Z" fill="black"/>
<path d="M337.366 244.659H337.382C337.507 244.655 337.625 244.601 337.711 244.509C337.796 244.418 337.842 244.296 337.837 244.171C336.471 203.88 356.528 183.612 356.73 183.413C356.911 183.23 356.911 182.935 356.73 182.752C356.549 182.569 356.255 182.564 356.069 182.742C355.862 182.942 335.515 203.505 336.895 244.204C336.904 244.458 337.112 244.659 337.366 244.659Z" fill="white"/>
<path d="M346.349 249.352L340.813 246.152C340.813 246.152 339.871 234.718 345.477 220.828C350.357 208.736 362.466 198.704 368.557 200.812C374.648 202.92 374.495 207.239 371.527 211.769C368.559 216.299 350.493 227.1 346.349 249.352Z" fill="#27DEBF"/>
<path d="M343.429 248.135C343.554 248.134 343.674 248.084 343.762 247.996C343.849 247.907 343.899 247.787 343.898 247.662C343.789 222.187 367.709 204.969 367.951 204.797C368.093 204.701 368.172 204.537 368.157 204.366C368.142 204.196 368.037 204.047 367.881 203.977C367.725 203.907 367.543 203.927 367.406 204.029C367.161 204.202 342.844 221.705 342.956 247.665C342.956 247.79 343.006 247.91 343.095 247.998C343.184 248.086 343.304 248.136 343.429 248.135Z" fill="white"/>
<path d="M53.47 236.539L60.654 231.691C60.654 231.691 63.816 212.869 60.878 196.336C56.747 173.092 40.717 165.356 34.996 167.785C29.275 170.214 28.053 177.147 38.726 190.418C45.025 198.247 53.249 214.898 53.47 236.539Z" fill="#27DEBF"/>
<g opacity="0.15">
<path d="M53.47 236.539L60.654 231.691C60.654 231.691 63.816 212.869 60.878 196.336C56.747 173.092 40.717 165.356 34.996 167.785C29.275 170.214 28.053 177.147 38.726 190.418C45.025 198.247 53.249 214.898 53.47 236.539Z" fill="black"/>
</g>
<path d="M55.937 227.228C55.9127 227.229 55.8883 227.229 55.864 227.228C55.7271 227.212 55.6022 227.142 55.5168 227.034C55.4315 226.926 55.3927 226.788 55.409 226.651C58.004 204.765 48.763 181.019 38.714 171.572C38.5707 171.446 38.5074 171.252 38.5489 171.066C38.5905 170.88 38.7304 170.732 38.9136 170.679C39.0968 170.627 39.2941 170.678 39.428 170.814C49.66 180.433 59.075 204.565 56.442 226.774C56.409 227.029 56.1944 227.222 55.937 227.228Z" fill="white"/>
<path d="M34.6531 249.233C33.5131 249.917 30.1801 247.444 29.2531 246.851C27.672 245.818 26.3834 244.395 25.5111 242.72C24.534 240.818 24.172 238.66 24.4751 236.543C24.6383 235.425 24.8789 234.319 25.1951 233.234L26.0531 230.019C26.4061 228.98 26.5443 227.879 26.4591 226.785C26.1371 224.604 24.1661 223.11 22.3771 221.823C20.3971 220.399 18.3281 218.51 18.2891 215.877C18.3919 213.831 19.1698 211.878 20.5011 210.321C21.7291 208.702 23.1951 207.265 24.3011 205.56C25.1733 204.37 25.6126 202.918 25.5461 201.444C25.4074 200.543 25.0876 199.68 24.6061 198.906C23.5042 197.296 22.5343 195.6 21.7061 193.834C21.0291 192.005 21.0761 189.713 22.4881 188.368C23.767 187.375 25.3914 186.938 26.9961 187.154C28.4944 187.308 29.9415 187.786 31.2371 188.554C35.4611 190.798 37.9421 195.701 42.4111 197.404C44.1823 197.918 45.9837 198.322 47.8051 198.612C49.6486 198.918 51.2774 199.987 52.2901 201.558C53.9811 204.777 51.0371 208.844 52.2481 212.273C53.3201 215.307 56.3101 216.419 58.0301 219.14C58.7333 220.342 59.0336 221.738 58.8871 223.123C58.7875 225.462 58.2605 227.763 57.3321 229.912C56.2742 232.125 55.0819 234.271 53.7621 236.339C53.7621 236.339 34.8271 249.128 34.6531 249.233Z" fill="#27DEBF"/>
<path d="M45.693 242.461H45.679C45.5397 242.459 45.4068 242.402 45.3098 242.302C45.2128 242.202 45.1596 242.067 45.162 241.928C45.623 221.251 35.448 198.628 28.241 192.14C28.1028 192.015 28.0417 191.826 28.0809 191.643C28.12 191.461 28.2534 191.314 28.4309 191.256C28.6083 191.199 28.8028 191.241 28.941 191.366C36.292 197.987 46.673 220.983 46.207 241.951C46.2011 242.232 45.9738 242.457 45.693 242.461Z" fill="white"/>
<path d="M41.884 217.271C41.832 217.272 41.78 217.266 41.73 217.251C36.8089 215.997 31.7658 215.284 26.69 215.123C26.4025 215.116 26.1744 214.879 26.18 214.591C26.1787 214.451 26.2351 214.318 26.3358 214.221C26.4366 214.124 26.5727 214.074 26.712 214.081C31.8773 214.246 37.0093 214.973 42.017 216.25C42.2649 216.321 42.4236 216.562 42.39 216.818C42.3564 217.073 42.1407 217.266 41.883 217.27L41.884 217.271Z" fill="white"/>
<path d="M234.372 222.326L231.272 220.536C230.228 219.854 229.572 218.716 229.505 217.471V88.825C229.572 87.5805 230.229 86.4428 231.273 85.762L317.31 36.089C318.421 35.5251 319.735 35.5251 320.846 36.089L323.946 37.878C324.99 38.5583 325.647 39.6958 325.714 40.94V169.587C325.647 170.832 324.99 171.969 323.946 172.65L237.905 222.328C236.794 222.89 235.482 222.89 234.372 222.326Z" fill="#455A64"/>
<path d="M325.7 40.654C325.578 39.739 324.834 39.404 323.944 39.919L237.911 89.6C237.391 89.9265 236.961 90.3787 236.661 90.915L230.021 87.085C230.318 86.5447 230.749 86.0893 231.271 85.762L317.312 36.089C318.423 35.5256 319.737 35.5256 320.848 36.089L323.948 37.878C324.908 38.505 325.547 39.5181 325.7 40.654Z" fill="#455A64"/>
<path d="M237.605 222.469C236.557 222.888 235.38 222.837 234.371 222.33L231.271 220.53C230.23 219.847 229.575 218.71 229.507 217.467V88.824C229.528 88.2097 229.705 87.6108 230.022 87.084L236.662 90.914C236.339 91.4416 236.159 92.0439 236.139 92.662V221.309C236.139 222.322 236.776 222.787 237.605 222.469Z" fill="#263238"/>
<path d="M236.14 92.661V221.307C236.14 222.434 236.932 222.891 237.908 222.328L323.947 172.65C324.991 171.969 325.648 170.832 325.715 169.587V40.941C325.715 39.814 324.924 39.357 323.947 39.921L237.908 89.599C236.864 90.2796 236.208 91.4169 236.14 92.661H236.14Z" fill="#37474F"/>
<path d="M216.047 141.698C214.936 141.036 209.783 138.104 209.513 137.949C209.092 137.692 208.809 137.259 208.741 136.77C208.673 136.281 208.827 135.788 209.162 135.425L229.506 113.602L236.138 117.408L215.802 139.239C215.478 139.584 215.319 140.053 215.366 140.524C215.413 140.995 215.661 141.423 216.047 141.698Z" fill="#455A64"/>
<path d="M236.141 117.412L215.801 139.237C215.34 139.731 215.231 140.458 215.526 141.066C215.82 141.674 216.459 142.038 217.132 141.983L236.14 140.417L236.141 117.412Z" fill="#37474F"/>
<path d="M280.927 78.141C290.955 72.351 299.083 77.041 299.083 88.623C299.083 100.205 290.954 114.281 280.927 120.071C270.9 125.861 262.771 121.171 262.771 109.588C262.771 98.005 270.9 83.93 280.927 78.141Z" fill="#27DEBF"/>
<path d="M280.799 87.253C284.052 85.375 286.69 86.897 286.69 90.653C286.464 94.7976 284.276 98.5862 280.799 100.853C277.546 102.731 274.909 101.208 274.909 97.453C275.134 93.3084 277.322 89.5196 280.799 87.253Z" fill="white"/>
<path d="M292.408 107.283C292.408 101.111 288.074 98.609 282.731 101.696L279.39 103.624C274.046 106.71 269.713 114.214 269.713 120.385V122.068C270.72 122.394 271.773 122.557 272.832 122.55C275.703 122.448 278.496 121.593 280.932 120.07C285.575 117.209 289.502 113.325 292.413 108.714L292.408 107.283Z" fill="white"/>
<path d="M269.426 177.4L292.426 164.119C293.402 163.555 294.194 164.012 294.194 165.14V172.548C294.127 173.792 293.47 174.93 292.426 175.611L269.426 188.892C268.449 189.456 267.658 188.999 267.658 187.871V180.463C267.725 179.218 268.382 178.081 269.426 177.4Z" fill="#27DEBF"/>
<path d="M258.168 160.842L303.687 134.562C304.859 133.886 305.809 134.434 305.809 135.787V138.544C305.728 140.037 304.94 141.402 303.687 142.219L258.167 168.499C256.996 169.175 256.045 168.627 256.045 167.274V164.517C256.126 163.024 256.915 161.658 258.168 160.842Z" fill="#FAFAFA"/>
<path fill-rule="evenodd" clip-rule="evenodd" d="M264.931 141.667C264.588 141.414 264.106 141.467 263.487 141.826L261.429 143.014C261.363 143.057 261.312 143.12 261.282 143.193C261.243 143.274 261.222 143.364 261.221 143.454V151.094C261.215 151.163 261.237 151.231 261.282 151.283C261.322 151.323 261.385 151.327 261.429 151.293L262.051 150.934C262.117 150.891 262.168 150.829 262.197 150.756C262.237 150.675 262.258 150.585 262.258 150.495V147.858L263.487 147.149C264.105 146.792 264.607 146.264 264.931 145.628C265.287 144.92 265.464 144.136 265.446 143.344C265.446 142.479 265.274 141.92 264.931 141.667ZM263.448 145.69L262.258 146.378V144.013L263.448 143.326C263.647 143.174 263.904 143.119 264.148 143.176C264.322 143.245 264.409 143.5 264.409 143.942C264.426 144.319 264.335 144.692 264.148 145.02C263.974 145.298 263.734 145.529 263.448 145.69Z" fill="#FAFAFA"/>
<path fill-rule="evenodd" clip-rule="evenodd" d="M269.059 138.711C269.018 138.668 268.956 138.67 268.874 138.717L268.031 139.202C267.949 139.249 267.884 139.322 267.846 139.409C267.798 139.526 267.762 139.648 267.739 139.772L265.857 148.333C265.851 148.362 265.849 148.391 265.849 148.42C265.843 148.488 265.865 148.556 265.91 148.608C265.949 148.647 266.011 148.652 266.056 148.619L266.609 148.3C266.703 148.25 266.778 148.171 266.824 148.075C266.861 147.997 266.889 147.915 266.909 147.831L267.239 146.331L269.666 144.931L269.996 146.052C270.012 146.107 270.041 146.158 270.081 146.199C270.122 146.241 270.196 146.233 270.296 146.174L270.849 145.855C270.915 145.812 270.966 145.75 270.995 145.677C271.035 145.596 271.055 145.506 271.056 145.416C271.057 145.39 271.054 145.364 271.049 145.338L269.167 138.95C269.15 138.863 269.113 138.781 269.059 138.711ZM268.452 140.783L269.296 143.665L267.607 144.64L268.452 140.783Z" fill="#FAFAFA"/>
<path d="M273.913 135.689C274.186 135.514 274.496 135.408 274.819 135.379C275.048 135.362 275.276 135.416 275.472 135.534C275.65 135.649 275.789 135.814 275.872 136.009C275.961 136.211 276.011 136.428 276.021 136.649C276.026 136.741 276.007 136.832 275.964 136.913C275.932 136.984 275.88 137.045 275.814 137.088L275.276 137.398C275.189 137.449 275.125 137.46 275.076 137.435C275.025 137.401 274.983 137.353 274.956 137.298C274.887 137.15 274.762 137.037 274.608 136.984C274.36 136.947 274.107 137.013 273.908 137.167C273.771 137.247 273.644 137.342 273.528 137.451C273.409 137.562 273.303 137.687 273.214 137.823C273.125 137.954 273.054 138.096 273.002 138.245C272.952 138.389 272.925 138.54 272.925 138.692C272.916 138.829 272.941 138.967 272.998 139.092C273.05 139.181 273.142 139.239 273.244 139.246C273.397 139.26 273.552 139.249 273.701 139.213C273.89 139.175 274.127 139.122 274.407 139.053C274.668 138.983 274.937 138.949 275.207 138.953C275.403 138.953 275.595 139.017 275.752 139.134C275.903 139.262 276.013 139.431 276.067 139.621C276.141 139.881 276.175 140.151 276.167 140.421C276.165 140.785 276.114 141.147 276.013 141.497C275.911 141.858 275.764 142.205 275.575 142.53C275.38 142.863 275.145 143.172 274.875 143.448C274.601 143.732 274.288 143.977 273.946 144.174C273.693 144.327 273.415 144.433 273.124 144.488C272.89 144.536 272.647 144.515 272.424 144.428C272.216 144.338 272.044 144.181 271.936 143.982C271.802 143.727 271.731 143.444 271.729 143.156C271.724 143.064 271.744 142.973 271.786 142.891C271.818 142.82 271.87 142.759 271.935 142.716L272.473 142.406C272.56 142.355 272.627 142.34 272.673 142.361C272.729 142.393 272.77 142.445 272.789 142.506C272.824 142.588 272.868 142.666 272.92 142.739C272.97 142.811 273.043 142.865 273.127 142.891C273.234 142.92 273.346 142.922 273.454 142.898C273.627 142.857 273.792 142.787 273.942 142.692C274.1 142.602 274.249 142.498 274.388 142.382C274.529 142.267 274.656 142.134 274.764 141.988C274.87 141.847 274.957 141.693 275.025 141.53C275.092 141.367 275.126 141.192 275.125 141.016C275.138 140.886 275.1 140.755 275.018 140.653C274.927 140.577 274.809 140.543 274.691 140.558C274.508 140.569 274.327 140.598 274.15 140.645C273.935 140.698 273.686 140.751 273.405 140.803C273.185 140.854 272.958 140.871 272.732 140.854C272.556 140.843 272.388 140.772 272.257 140.654C272.118 140.515 272.021 140.339 271.977 140.148C271.909 139.865 271.878 139.575 271.885 139.284C271.886 138.923 271.938 138.563 272.039 138.216C272.139 137.862 272.281 137.522 272.462 137.203C272.64 136.887 272.855 136.594 273.103 136.33C273.34 136.077 273.613 135.861 273.913 135.689Z" fill="#FAFAFA"/>
<path d="M279.274 132.594C279.547 132.419 279.858 132.313 280.18 132.284C280.409 132.267 280.637 132.321 280.834 132.439C281.01 132.555 281.147 132.72 281.228 132.914C281.317 133.116 281.368 133.333 281.378 133.554C281.383 133.646 281.363 133.737 281.32 133.818C281.288 133.889 281.236 133.95 281.171 133.993L280.633 134.304C280.546 134.354 280.481 134.366 280.433 134.341C280.383 134.306 280.342 134.258 280.315 134.203C280.245 134.056 280.119 133.943 279.965 133.889C279.717 133.852 279.464 133.918 279.265 134.072C278.985 134.235 278.746 134.459 278.565 134.728C278.477 134.859 278.406 135.002 278.354 135.151C278.304 135.295 278.278 135.446 278.277 135.598C278.269 135.735 278.294 135.873 278.35 135.998C278.402 136.087 278.494 136.145 278.596 136.152C278.749 136.166 278.904 136.154 279.053 136.119C279.242 136.08 279.478 136.027 279.759 135.959C280.018 135.889 280.286 135.856 280.554 135.859C280.751 135.859 280.942 135.923 281.099 136.04C281.25 136.167 281.36 136.337 281.414 136.527C281.488 136.787 281.522 137.057 281.514 137.327C281.513 137.691 281.461 138.053 281.361 138.403C281.259 138.764 281.112 139.111 280.923 139.435C280.728 139.769 280.493 140.077 280.223 140.354C279.949 140.638 279.636 140.882 279.294 141.079C279.041 141.232 278.763 141.338 278.472 141.393C278.238 141.442 277.995 141.421 277.772 141.333C277.564 141.244 277.392 141.087 277.284 140.887C277.15 140.632 277.079 140.349 277.077 140.061C277.072 139.969 277.093 139.878 277.136 139.797C277.167 139.725 277.219 139.664 277.285 139.621L277.823 139.311C277.91 139.26 277.976 139.245 278.023 139.267C278.079 139.298 278.12 139.35 278.138 139.412C278.174 139.494 278.218 139.572 278.269 139.645C278.32 139.717 278.392 139.77 278.476 139.796C278.583 139.825 278.695 139.827 278.803 139.803C278.976 139.762 279.141 139.692 279.291 139.598C279.448 139.508 279.597 139.404 279.736 139.287C280.016 139.059 280.235 138.766 280.375 138.434C280.442 138.271 280.476 138.097 280.475 137.921C280.488 137.791 280.45 137.66 280.368 137.558C280.277 137.483 280.159 137.449 280.041 137.463C279.858 137.474 279.677 137.503 279.499 137.55C279.285 137.604 279.036 137.656 278.754 137.709C278.534 137.759 278.307 137.776 278.082 137.76C277.906 137.748 277.739 137.678 277.607 137.56C277.468 137.42 277.371 137.245 277.326 137.053C277.258 136.771 277.228 136.48 277.235 136.19C277.236 135.828 277.288 135.468 277.388 135.121C277.488 134.768 277.63 134.427 277.811 134.108C277.989 133.792 278.204 133.499 278.452 133.235C278.693 132.982 278.97 132.766 279.274 132.594Z" fill="#FAFAFA"/>
<path d="M285.231 133.616L284.57 137.533C284.548 137.651 284.514 137.766 284.47 137.878C284.439 137.966 284.378 138.041 284.298 138.09L283.675 138.449C283.598 138.493 283.538 138.491 283.495 138.44C283.444 138.371 283.413 138.288 283.407 138.202L282.423 131.308C282.419 131.278 282.417 131.248 282.416 131.218C282.417 131.128 282.438 131.039 282.477 130.957C282.507 130.884 282.558 130.822 282.623 130.779L283.191 130.45C283.235 130.422 283.29 130.417 283.338 130.438C283.384 130.458 283.415 130.523 283.429 130.638L284.074 135.279L284.643 131.793C284.66 131.706 284.684 131.62 284.716 131.537C284.75 131.434 284.821 131.347 284.916 131.294L285.545 130.93C285.638 130.877 285.703 130.883 285.745 130.948C285.778 131 285.803 131.058 285.817 131.118L286.386 133.948L287.031 128.562C287.04 128.456 287.071 128.354 287.123 128.262C287.158 128.199 287.208 128.146 287.269 128.107L287.837 127.779C287.882 127.746 287.944 127.751 287.983 127.79C288.029 127.842 288.051 127.91 288.044 127.979C288.044 128.012 288.041 128.046 288.037 128.079L287.054 136.109C287.041 136.226 287.012 136.341 286.967 136.45C286.932 136.54 286.868 136.616 286.786 136.667L286.164 137.026C286.086 137.071 286.029 137.067 285.991 137.015C285.944 136.943 285.91 136.864 285.891 136.781L285.231 133.616Z" fill="#FAFAFA"/>
<path fill-rule="evenodd" clip-rule="evenodd" d="M289.217 128.807C289.123 129.249 289.068 129.698 289.052 130.15C289.051 130.175 289.05 130.2 289.049 130.225C289.043 130.358 289.036 130.495 289.036 130.649V131.213C289.036 131.278 289.036 131.342 289.036 131.406C289.035 131.53 289.035 131.652 289.036 131.772C289.037 131.857 289.04 131.938 289.042 132.016C289.045 132.103 289.047 132.185 289.047 132.263C289.057 132.652 289.112 133.039 289.212 133.415C289.282 133.705 289.426 133.973 289.631 134.19C289.815 134.372 290.064 134.473 290.322 134.472C290.673 134.455 291.013 134.345 291.306 134.152C291.677 133.939 292.008 133.664 292.285 133.339C292.566 133.012 292.801 132.648 292.985 132.258C293.172 131.856 293.312 131.433 293.403 130.999C293.497 130.557 293.553 130.108 293.568 129.656C293.569 129.62 293.57 129.582 293.571 129.543C293.575 129.424 293.579 129.294 293.579 129.156V128.592C293.579 128.527 293.579 128.463 293.58 128.399C293.58 128.274 293.58 128.152 293.579 128.033C293.578 127.949 293.576 127.868 293.573 127.791C293.571 127.704 293.568 127.621 293.568 127.543C293.56 127.152 293.503 126.764 293.398 126.387C293.324 126.098 293.179 125.833 292.977 125.614C292.794 125.43 292.545 125.326 292.285 125.327C291.938 125.343 291.602 125.451 291.311 125.641C290.938 125.855 290.605 126.134 290.327 126.463C290.051 126.793 289.818 127.158 289.636 127.548C289.449 127.95 289.309 128.373 289.217 128.807ZM292.174 127.088C292.437 127.396 292.566 127.796 292.532 128.2V128.204C292.545 128.499 292.547 128.824 292.547 129.191C292.547 129.558 292.543 129.895 292.532 130.2C292.524 130.726 292.402 131.244 292.174 131.719C291.988 132.117 291.688 132.452 291.311 132.679C290.952 132.886 290.664 132.898 290.446 132.717C290.183 132.411 290.054 132.012 290.089 131.61C290.079 131.32 290.073 130.987 290.073 130.62C290.073 130.253 290.079 129.916 290.089 129.611C290.097 129.083 290.219 128.563 290.446 128.087C290.631 127.685 290.933 127.349 291.311 127.12C291.668 126.912 291.957 126.903 292.174 127.088Z" fill="#FAFAFA"/>
<path fill-rule="evenodd" clip-rule="evenodd" d="M298.615 122.233C298.282 121.968 297.795 122.02 297.156 122.389L295.179 123.531C295.114 123.576 295.063 123.639 295.034 123.712C294.994 123.793 294.973 123.882 294.972 123.973V131.612C294.965 131.681 294.988 131.749 295.034 131.801C295.073 131.84 295.135 131.844 295.179 131.812L295.801 131.453C295.867 131.408 295.917 131.345 295.947 131.272C295.986 131.191 296.007 131.103 296.008 131.013V128.257L297.03 127.667L298.035 129.843C298.058 129.898 298.092 129.948 298.135 129.99C298.184 130.035 298.262 130.03 298.362 129.97L299.015 129.594C299.069 129.559 299.11 129.508 299.134 129.449C299.166 129.383 299.183 129.31 299.184 129.237C299.184 129.197 299.176 129.156 299.161 129.119L298.101 126.81C298.437 126.415 298.694 125.96 298.858 125.469C299.032 124.946 299.119 124.399 299.115 123.848C299.193 123.262 299.01 122.672 298.615 122.233ZM297.117 126.137L296.004 126.78V124.534L297.117 123.891C297.318 123.743 297.569 123.678 297.817 123.711C297.991 123.761 298.078 124.007 298.078 124.448C298.097 124.816 298.006 125.181 297.817 125.497C297.636 125.761 297.397 125.98 297.117 126.137Z" fill="#FAFAFA"/>
<path fill-rule="evenodd" clip-rule="evenodd" d="M303.589 118.905C303.238 118.936 302.899 119.053 302.602 119.244L300.705 120.337C300.64 120.381 300.589 120.444 300.559 120.517C300.52 120.598 300.499 120.687 300.498 120.777V128.417C300.492 128.486 300.514 128.554 300.559 128.606C300.598 128.646 300.661 128.65 300.705 128.617L302.641 127.5C303.004 127.293 303.33 127.027 303.605 126.713C303.883 126.396 304.114 126.042 304.293 125.66C304.483 125.252 304.626 124.824 304.719 124.384C304.821 123.906 304.881 123.42 304.899 122.932C304.92 122.337 304.92 121.754 304.899 121.183C304.888 120.762 304.828 120.345 304.719 119.938C304.648 119.644 304.499 119.375 304.289 119.158C304.1 118.981 303.847 118.89 303.589 118.905ZM303.761 121.133C303.82 121.344 303.853 121.562 303.861 121.781C303.881 122.353 303.881 122.935 303.858 123.534C303.846 123.791 303.813 124.047 303.758 124.298C303.707 124.539 303.629 124.774 303.524 124.998C303.424 125.213 303.294 125.413 303.14 125.593C302.985 125.774 302.801 125.927 302.594 126.045L301.526 126.661V121.339L302.555 120.745C302.725 120.634 302.921 120.567 303.123 120.552C303.271 120.546 303.416 120.6 303.523 120.703C303.639 120.823 303.721 120.971 303.761 121.133Z" fill="#FAFAFA"/>
<path fill-rule="evenodd" clip-rule="evenodd" d="M194.483 2.22598C193.217 1.53122 191.858 1.02105 190.447 0.710984C188.897 0.354976 187.293 0.30673 185.724 0.568984C184.265 0.80626 182.854 1.27624 181.544 1.96098C180.351 2.58418 179.277 3.4144 178.374 4.41298C177.568 5.27226 176.984 6.31601 176.674 7.45298C176.602 7.72483 176.651 8.0147 176.81 8.24698C176.961 8.46884 177.192 8.62311 177.455 8.67698L181.143 9.49398C181.44 9.5912 181.763 9.56786 182.043 9.42898C182.294 9.25296 182.511 9.03471 182.687 8.78398C184.473 6.47132 186.656 5.60098 189.237 6.17298C190.631 6.40948 191.907 7.1037 192.862 8.14598C193.642 9.00233 193.952 10.1876 193.689 11.316C193.551 11.9506 193.206 12.5213 192.708 12.939C192.136 13.4239 191.514 13.8466 190.853 14.2C190.127 14.5973 189.344 15.0053 188.503 15.424C187.65 15.8496 186.836 16.3484 186.069 16.915C185.273 17.5062 184.558 18.1991 183.941 18.976C183.264 19.8522 182.774 20.8574 182.499 21.93C182.394 22.2491 182.449 22.5996 182.649 22.87C182.833 23.157 183.123 23.3589 183.456 23.431L186.919 24.198C187.231 24.2764 187.562 24.2091 187.819 24.015C188.086 23.8166 188.294 23.5489 188.419 23.241C188.672 22.5743 189.108 21.9919 189.675 21.56C190.304 21.0676 190.976 20.6325 191.683 20.26C192.423 19.868 193.208 19.453 194.038 19.015C194.871 18.5753 195.664 18.0633 196.408 17.485C197.17 16.8901 197.841 16.187 198.4 15.398C199.023 14.4801 199.455 13.4463 199.67 12.358C200.002 10.9904 199.973 9.55998 199.586 8.20698C199.209 6.94109 198.564 5.77124 197.694 4.77698C196.783 3.74313 195.696 2.87937 194.483 2.22598ZM187.497 28.485C187.637 27.8086 187.214 27.1434 186.541 26.985L182.621 26.119C181.944 25.9776 181.278 26.4025 181.121 27.076L180.233 31.084C180.094 31.7612 180.519 32.4264 181.192 32.584L185.109 33.451C185.786 33.5912 186.452 33.1662 186.609 32.493L187.497 28.485Z" fill="#27DEBF"/>
<path fill-rule="evenodd" clip-rule="evenodd" d="M197.782 38.962C196.793 38.8402 195.791 38.8611 194.807 39.024C193.72 39.1927 192.677 39.574 191.737 40.146C190.863 40.6713 190.078 41.3337 189.414 42.108C188.81 42.813 188.336 43.6199 188.014 44.491C187.716 45.2481 187.609 46.0667 187.701 46.875C187.725 47.0678 187.83 47.2411 187.991 47.35C188.145 47.4535 188.334 47.493 188.516 47.46L191.089 47.039C191.304 47.0261 191.505 46.9287 191.648 46.768C191.764 46.5915 191.848 46.3958 191.896 46.19C192.248 44.4398 193.661 43.099 195.427 42.839C196.381 42.6334 197.377 42.752 198.256 43.176C198.976 43.5251 199.478 44.2055 199.599 44.996C199.672 45.4388 199.597 45.8933 199.385 46.289C199.142 46.7456 198.851 47.1753 198.518 47.571C198.155 48.0123 197.757 48.4747 197.325 48.958C196.887 49.4493 196.492 49.9779 196.146 50.538C195.787 51.1207 195.506 51.7481 195.31 52.404C195.1 53.1385 195.042 53.9084 195.141 54.666C195.155 54.8978 195.28 55.1085 195.477 55.231C195.669 55.3678 195.907 55.4229 196.139 55.384L198.555 54.99C198.775 54.9597 198.97 54.8319 199.086 54.642C199.207 54.4462 199.272 54.221 199.273 53.991C199.264 53.4984 199.394 53.0132 199.648 52.591C199.926 52.114 200.245 51.6629 200.603 51.243C200.978 50.803 201.374 50.3363 201.793 49.843C202.215 49.3481 202.592 48.817 202.921 48.256C203.258 47.6782 203.508 47.0543 203.663 46.404C203.828 45.6558 203.841 44.8821 203.7 44.129C203.563 43.167 203.178 42.2572 202.583 41.489C202.018 40.7741 201.305 40.1892 200.493 39.774C199.645 39.3449 198.727 39.07 197.782 38.962ZM200.028 57.585C199.946 57.1133 199.501 56.7944 199.028 56.868L196.294 57.315C195.823 57.3986 195.505 57.8421 195.576 58.315L196.033 61.115C196.116 61.5864 196.56 61.9051 197.033 61.832L199.767 61.385C200.239 61.3024 200.558 60.8581 200.485 60.385L200.028 57.585Z" fill="#27DEBF"/>
<g opacity="0.2">
<path fill-rule="evenodd" clip-rule="evenodd" d="M197.782 38.962C196.793 38.8402 195.791 38.8611 194.807 39.024C193.72 39.1927 192.677 39.574 191.737 40.146C190.863 40.6713 190.078 41.3337 189.414 42.108C188.81 42.813 188.336 43.6199 188.014 44.491C187.716 45.2481 187.609 46.0667 187.701 46.875C187.725 47.0678 187.83 47.2411 187.991 47.35C188.145 47.4535 188.334 47.493 188.516 47.46L191.089 47.039C191.304 47.0261 191.505 46.9287 191.648 46.768C191.764 46.5915 191.848 46.3958 191.896 46.19C192.248 44.4398 193.661 43.099 195.427 42.839C196.381 42.6334 197.377 42.752 198.256 43.176C198.976 43.5251 199.478 44.2055 199.599 44.996C199.672 45.4388 199.597 45.8933 199.385 46.289C199.142 46.7456 198.851 47.1753 198.518 47.571C198.155 48.0123 197.757 48.4747 197.325 48.958C196.887 49.4493 196.492 49.9779 196.146 50.538C195.787 51.1207 195.506 51.7481 195.31 52.404C195.1 53.1385 195.042 53.9084 195.141 54.666C195.155 54.8978 195.28 55.1085 195.477 55.231C195.669 55.3678 195.907 55.4229 196.139 55.384L198.555 54.99C198.775 54.9597 198.97 54.8319 199.086 54.642C199.207 54.4462 199.272 54.221 199.273 53.991C199.264 53.4984 199.394 53.0132 199.648 52.591C199.926 52.114 200.245 51.6629 200.603 51.243C200.978 50.803 201.374 50.3363 201.793 49.843C202.215 49.3481 202.592 48.817 202.921 48.256C203.258 47.6782 203.508 47.0543 203.663 46.404C203.828 45.6558 203.841 44.8821 203.7 44.129C203.563 43.167 203.178 42.2572 202.583 41.489C202.018 40.7741 201.305 40.1892 200.493 39.774C199.645 39.3449 198.727 39.07 197.782 38.962ZM200.028 57.585C199.946 57.1133 199.501 56.7944 199.028 56.868L196.294 57.315C195.823 57.3986 195.505 57.8421 195.576 58.315L196.033 61.115C196.116 61.5864 196.56 61.9051 197.033 61.832L199.767 61.385C200.239 61.3024 200.558 60.8581 200.485 60.385L200.028 57.585Z" fill="black"/>
</g>
<path fill-rule="evenodd" clip-rule="evenodd" d="M231.769 27.296C231.037 26.3689 230.176 25.5518 229.211 24.87C228.157 24.1084 226.963 23.5611 225.698 23.259C224.524 22.9728 223.312 22.8773 222.107 22.976C221.009 23.0651 219.936 23.3485 218.937 23.813C218.055 24.2029 217.283 24.8035 216.688 25.562C216.547 25.7434 216.491 25.9774 216.536 26.203C216.579 26.4183 216.705 26.6082 216.886 26.732L219.406 28.523C219.599 28.6913 219.851 28.7769 220.106 28.761C220.351 28.7083 220.585 28.6132 220.797 28.48C222.552 27.2988 224.86 27.3468 226.565 28.6C227.539 29.2222 228.278 30.1511 228.665 31.24C228.98 32.1337 228.836 33.1253 228.279 33.892C227.972 34.3251 227.531 34.645 227.024 34.802C226.439 34.9851 225.835 35.1055 225.224 35.161C224.551 35.2297 223.831 35.2877 223.064 35.335C222.286 35.3839 221.514 35.5006 220.756 35.684C219.968 35.8766 219.208 36.1707 218.496 36.559C217.707 37.0034 217.016 37.6044 216.467 38.325C216.286 38.5322 216.217 38.8144 216.281 39.082C216.329 39.3567 216.483 39.6013 216.711 39.762L219.072 41.446C219.282 41.6048 219.553 41.6597 219.808 41.595C220.073 41.5313 220.315 41.396 220.508 41.204C220.911 40.782 221.425 40.4817 221.99 40.337C222.621 40.1657 223.265 40.0519 223.916 39.997C224.599 39.9383 225.323 39.8757 226.088 39.809C226.856 39.7419 227.617 39.6081 228.361 39.409C229.126 39.2032 229.856 38.8858 230.528 38.467C231.29 37.9747 231.944 37.3339 232.452 36.583C233.139 35.6582 233.573 34.5705 233.711 33.427C233.829 32.3525 233.715 31.2652 233.375 30.239C233.019 29.1703 232.475 28.1737 231.769 27.296ZM218.144 44.857C218.468 44.3917 218.36 43.753 217.901 43.42L215.227 41.519C214.761 41.197 214.124 41.3048 213.79 41.762L211.845 44.5C211.522 44.9654 211.63 45.6037 212.088 45.937L214.762 47.837C215.228 48.159 215.865 48.0512 216.199 47.594L218.144 44.857Z" fill="#27DEBF"/>
<g opacity="0.6">
<path fill-rule="evenodd" clip-rule="evenodd" d="M231.769 27.296C231.037 26.3689 230.176 25.5518 229.211 24.87C228.157 24.1084 226.963 23.5611 225.698 23.259C224.524 22.9728 223.312 22.8773 222.107 22.976C221.009 23.0651 219.936 23.3485 218.937 23.813C218.055 24.2029 217.283 24.8035 216.688 25.562C216.547 25.7434 216.491 25.9774 216.536 26.203C216.579 26.4183 216.705 26.6082 216.886 26.732L219.406 28.523C219.599 28.6913 219.851 28.7769 220.106 28.761C220.351 28.7083 220.585 28.6132 220.797 28.48C222.552 27.2988 224.86 27.3468 226.565 28.6C227.539 29.2222 228.278 30.1511 228.665 31.24C228.98 32.1337 228.836 33.1253 228.279 33.892C227.972 34.3251 227.531 34.645 227.024 34.802C226.439 34.9851 225.835 35.1055 225.224 35.161C224.551 35.2297 223.831 35.2877 223.064 35.335C222.286 35.3839 221.514 35.5006 220.756 35.684C219.968 35.8766 219.208 36.1707 218.496 36.559C217.707 37.0034 217.016 37.6044 216.467 38.325C216.286 38.5322 216.217 38.8144 216.281 39.082C216.329 39.3567 216.483 39.6013 216.711 39.762L219.072 41.446C219.282 41.6048 219.553 41.6597 219.808 41.595C220.073 41.5313 220.315 41.396 220.508 41.204C220.911 40.782 221.425 40.4817 221.99 40.337C222.621 40.1657 223.265 40.0519 223.916 39.997C224.599 39.9383 225.323 39.8757 226.088 39.809C226.856 39.7419 227.617 39.6081 228.361 39.409C229.126 39.2032 229.856 38.8858 230.528 38.467C231.29 37.9747 231.944 37.3339 232.452 36.583C233.139 35.6582 233.573 34.5705 233.711 33.427C233.829 32.3525 233.715 31.2652 233.375 30.239C233.019 29.1703 232.475 28.1737 231.769 27.296ZM218.144 44.857C218.468 44.3917 218.36 43.753 217.901 43.42L215.227 41.519C214.761 41.197 214.124 41.3048 213.79 41.762L211.845 44.5C211.522 44.9654 211.63 45.6037 212.088 45.937L214.762 47.837C215.228 48.159 215.865 48.0512 216.199 47.594L218.144 44.857Z" fill="white"/>
</g>
<path d="M157.084 115.719H128.07V45.412C128.07 32.6978 138.377 22.391 151.091 22.391H153.771C159.877 22.3907 165.733 24.816 170.05 29.1333C174.368 33.4506 176.793 39.3063 176.793 45.412V96.012C176.793 101.239 174.716 106.252 171.02 109.947C167.324 113.643 162.311 115.719 157.084 115.719Z" fill="#263238"/>
<path d="M125.249 284.965C124.728 287.878 124.447 290.83 124.409 293.789C124.309 299.145 123.323 301.046 123.193 305.442C123.044 310.466 123.912 312.342 125.95 315.168C127.988 317.994 133.337 320.553 135.599 315.781C137.887 310.951 137.569 307.881 136.846 302.955C136.098 297.861 136.003 295.048 135.57 291.162C135.189 287.738 134.731 285.136 134.731 285.136L125.249 284.965Z" fill="#263238"/>
<path d="M140.451 249.382L122.807 249.063C123.069 260.841 124.941 273.915 125.247 284.963C125.304 287.043 125.195 301.127 125.98 305.408C127.159 311.839 134.792 310.971 135.197 307.122C135.602 303.273 134.706 286.83 134.73 285.134C134.663 278.047 137.985 266.082 139.73 253.36C139.813 252.736 140.372 249.99 140.451 249.382Z" fill="#FFA8A7"/>
<path d="M163.119 275.803C163.119 275.803 162.419 275.429 162.279 276.172C162.108 277.057 161.853 278.879 161.486 280.332C160.889 282.609 160.676 284.971 160.857 287.318C161.162 288.962 164.996 291.08 167.485 291.843C170.566 292.789 173.377 294.456 175.685 296.705C178.914 299.375 182.909 300.946 187.091 301.19C191.377 301.159 194.366 299.762 195.778 297.467C197.253 295.067 194.491 294.894 189.592 291.716C188.48 290.994 187.214 290.178 185.792 289.247C178.032 284.178 175.192 281.461 172.992 276.391L163.119 275.803Z" fill="#263238"/>
<path d="M173.056 272.661C172.925 269.014 175.426 238.076 175.426 238.076L158.669 245.715C162.258 267.133 163.022 272.182 163.086 275.687C163.01 275.981 162.978 276.284 162.991 276.587C163.007 280.748 167.702 282.993 171.365 285.766C174.474 288.205 177.789 290.369 181.273 292.234C183.934 293.572 189.339 293.693 190.009 291.981C185.551 288.581 179.068 283.481 175.523 279.596C173.83 277.736 173.187 276.308 173.056 272.661Z" fill="#FFA8A7"/>
<path d="M130.038 134.458C123.606 148.586 123.606 159.51 124.669 177.535C125.644 194.069 127.2 208.626 127.2 208.626C126.951 211.561 122.873 217.285 122.345 230.25C122.141 239.435 122.42 248.625 123.18 257.781C123.18 257.781 132.334 262.855 139.103 257.737C139.103 257.737 145.634 226.548 147.549 211.374C149.219 198.133 152.122 181.213 152.122 181.213L158.269 211.301C156.937 215.568 155.97 219.941 155.379 224.372C154.515 233.297 159.506 250.822 159.506 250.822C159.506 250.822 168.965 253.645 174.741 248.522C174.741 248.522 176.901 220.028 177.707 209.277C178.787 194.877 176.517 155.904 174.74 135.269L130.038 134.458Z" fill="#455A64"/>
<path d="M152.122 181.214L154.664 158.565C154.664 158.565 166.049 157.043 171.207 152.195C168.217 156.874 163.301 159.981 157.792 160.674L154.118 181.749L158.272 211.304L152.122 181.214Z" fill="#263238"/>
<path d="M198.227 128.893C198.704 124.758 198.911 120.597 198.848 116.436C198.599 112.842 197.956 112.257 192.932 105.888C186.148 97.288 180.358 89.562 174.232 81.873C169.859 76.384 165.264 75.539 160.775 75.788C157.637 75.961 163.76 91.046 166.844 99.971L184.444 118.903C184.986 119.65 185.235 120.57 185.144 121.489L184.063 137.606L189.333 144.657C189.333 144.657 197.316 137.776 198.227 128.893Z" fill="#FFA8A7"/>
<path d="M143.818 76.276C140.418 76.51 134.223 77.055 134.223 77.055C130.651 79.049 129.748 80.683 129.083 85.428C128.8 87.446 130.446 92.828 131.858 100.483L134.539 114.673L134.248 121.71C132.855 126.003 129.708 131.341 126.935 139.21C140.571 146.82 152.007 147.102 162.379 145.771C170.288 144.756 174.473 142.841 175.869 140.952C175.578 133.18 175.028 128.381 174.893 120.262C174.837 116.851 175.042 113.411 175.174 109.486C180.48 105.127 180.541 97.878 177.646 93.193C170.921 82.307 164.384 75.453 160.054 75.804L143.818 76.276Z" fill="#27DEBF"/>
<path opacity="0.6" d="M143.818 76.276C140.418 76.51 134.223 77.055 134.223 77.055C130.651 79.049 129.748 80.683 129.083 85.428C128.8 87.446 130.446 92.828 131.858 100.483L134.539 114.673L134.248 121.71C132.855 126.003 129.708 131.341 126.935 139.21C140.571 146.82 152.007 147.102 162.379 145.771C170.288 144.756 174.473 142.841 175.869 140.952C175.578 133.18 175.028 128.381 174.893 120.262C174.837 116.851 175.042 113.411 175.174 109.486C180.48 105.127 180.541 97.878 177.646 93.193C170.921 82.307 164.384 75.453 160.054 75.804L143.818 76.276Z" fill="white"/>
<path opacity="0.1" d="M164.619 109.6C164.619 109.6 158.391 114.433 151.284 111.912C147.229 110.625 144.14 107.313 143.139 103.178C143.139 103.178 142.384 111.304 151.35 114.078C156.277 115.672 161.666 113.854 164.619 109.6Z" fill="black"/>
<path d="M173.064 53.973C172.796 65.764 168.964 68.679 167.051 69.516C165.138 70.353 161.431 69.843 157.839 69.248V76.324C157.839 76.324 161.984 80.671 161.674 83.911C161.364 87.151 155.158 87.521 150.502 84.347C147.945 82.5857 145.63 80.4957 143.618 78.131C143.233 77.6757 143.022 77.0984 143.023 76.502V59.849C143.023 59.849 141.056 61.934 137.571 59.549C136.051 58.5823 135.007 57.0216 134.693 55.2477C134.379 53.4737 134.825 51.6495 135.921 50.22C137.437 48.436 141.289 48.311 143.14 51.082C144.178 53.117 144.321 55.161 145.485 54.315C148.592 52.079 146.926 46.996 150.677 44.483C150.686 44.483 150.686 44.475 150.694 44.475C151.921 43.819 153.198 43.2616 154.513 42.808C161.204 40.497 166.999 38.554 168.398 33.982C171.038 35.549 173.391 40.063 173.064 53.973Z" fill="#FFA8A7"/>
<circle cx="159.876" cy="62.96" r="1.548" fill="#B16668"/>
<path d="M158.84 52.185C158.848 53.0777 158.138 53.8113 157.245 53.8316C156.353 53.8518 155.61 53.1512 155.577 52.259C155.545 51.3669 156.235 50.6143 157.127 50.57C157.569 50.5549 157.999 50.7171 158.32 51.0204C158.642 51.3237 158.829 51.743 158.84 52.185Z" fill="#263238"/>
<path d="M171.218 52.346C171.246 52.7452 171.115 53.1392 170.852 53.441C170.589 53.7429 170.217 53.9278 169.818 53.955C169.41 53.9942 169.005 53.8554 168.707 53.5742C168.408 53.2929 168.246 52.8967 168.261 52.487C168.217 51.947 168.471 51.4261 168.924 51.1282C169.376 50.8304 169.955 50.803 170.434 51.0568C170.913 51.3106 171.215 51.8053 171.222 52.347L171.218 52.346Z" fill="#263238"/>
<path fill-rule="evenodd" clip-rule="evenodd" d="M151.431 51.073C151.435 54.005 153.811 56.3807 156.743 56.384C159.675 56.3807 162.051 54.005 162.055 51.073C162.055 47.461 158.333 47.461 156.743 47.461C155.153 47.461 151.431 47.461 151.431 51.073ZM152.268 51.073C152.268 49.077 153.523 48.299 156.743 48.299V48.298C159.962 48.298 161.217 49.076 161.217 51.073C161.217 53.5442 159.214 55.5475 156.743 55.5475C154.271 55.5475 152.268 53.5442 152.268 51.073Z" fill="#455A64"/>
<path fill-rule="evenodd" clip-rule="evenodd" d="M164.916 51.073C164.92 54.005 167.296 56.3807 170.228 56.384C173.16 56.3807 175.536 54.005 175.54 51.073C175.54 47.461 171.818 47.461 170.228 47.461C168.638 47.461 164.916 47.461 164.916 51.073ZM165.753 51.073C165.753 49.077 167.008 48.299 170.228 48.299V48.298C173.447 48.298 174.702 49.076 174.702 51.073C174.702 53.5442 172.699 55.5475 170.228 55.5475C167.756 55.5475 165.753 53.5442 165.753 51.073Z" fill="#455A64"/>
<path d="M162.879 49.36L163.141 59.279L168.362 57.662L162.879 49.36Z" fill="#F28F8F"/>
<path d="M157.835 69.242C154.043 68.742 146.242 66.504 145.026 63.42C145.513 64.9813 146.468 66.3552 147.762 67.356C150.092 69.356 157.835 71.603 157.835 71.603V69.242Z" fill="#F28F8F"/>
<path d="M158.016 44.543L154.557 46.652C153.987 45.666 154.296 44.4059 155.257 43.795C155.719 43.5156 156.276 43.4374 156.797 43.5787C157.318 43.72 157.758 44.0685 158.016 44.543Z" fill="#263238"/>
<path d="M172.109 46.894L168.253 45.547C168.405 45.0311 168.763 44.6003 169.242 44.3556C169.721 44.1109 170.279 44.0738 170.786 44.253C171.859 44.6415 172.441 45.8019 172.109 46.894Z" fill="#263238"/>
<path d="M161.632 51.495C161.4 51.4933 161.214 51.3047 161.214 51.073C161.214 50.393 162.558 49.954 163.765 49.954C164.972 49.954 165.75 50.393 165.75 51.073C165.739 51.2962 165.555 51.4715 165.332 51.4715C165.108 51.4715 164.924 51.2962 164.913 51.073C164.577 50.8436 164.169 50.7434 163.765 50.791C163.181 50.7809 162.6 50.8789 162.051 51.08C162.051 51.1907 162.007 51.2969 161.928 51.3749C161.849 51.4528 161.743 51.496 161.632 51.495Z" fill="#455A64"/>
<path d="M151.864 51.142H151.817L142.481 50.291C142.042 49.8614 141.522 49.5238 140.951 49.298L151.91 50.309C152.13 50.3353 152.291 50.5275 152.279 50.7481C152.266 50.9687 152.085 51.1419 151.864 51.144V51.142Z" fill="#455A64"/>
<path d="M113.535 60.871C116.588 56.792 118.67 53.71 121.456 50.214C123.039 48.229 124.05 46.814 125.572 44.775C126.619 43.375 127.234 42.19 128.395 41.756C129.685 41.2286 130.846 40.431 131.802 39.417C132.381 38.7654 132.919 38.0788 133.413 37.361C135.162 35.0062 137.239 32.9142 139.581 31.149C142.039 29.297 144.769 27.885 147.29 26.121C148.795 25.068 150.407 23.321 148.577 21.687C148.016 21.2137 147.342 20.8922 146.621 20.753C142.177 19.782 138.299 21.314 133.952 22.426C132.06 22.8984 130.209 23.5234 128.418 24.295C127.536 24.6402 126.71 25.114 125.967 25.701C124.926 26.7487 124.073 27.9687 123.448 29.307C121.494 32.75 117.448 35.788 114.596 38.468C111.253 41.612 108.266 44.495 104.452 47.968C101.02 51.09 97.6631 53.968 94.5151 57.379C91.9151 60.2 92.8591 62.407 93.2291 63.17C95.3511 67.535 97.7291 69.099 100.565 71.803C105.481 76.486 122.414 89.957 128.03 94.403C129.231 95.3543 130.177 96.5893 130.783 97.997L131.855 100.488C138.255 101.666 142.53 92.053 137.227 80.478C136.353 78.6061 135.012 76.9902 133.334 75.785C126.652 70.905 113.535 60.871 113.535 60.871Z" fill="#FFA8A7"/>
<path d="M113.535 60.871C111.495 63.3775 108.779 65.2466 105.709 66.257C105.709 66.257 109.793 67.299 115.384 62.282L113.535 60.871Z" fill="#F28F8F"/>
<path d="M196.561 120.371H196.582L195.535 119.471V119.485C195.217 119.274 194.816 119.229 194.459 119.365L183.119 122.449C181.963 122.833 181.032 123.703 180.571 124.831L172.41 148.375C172.21 148.768 172.269 149.243 172.56 149.575H172.551L173.631 150.505V150.491C173.95 150.71 174.356 150.757 174.717 150.619L186.057 147.535C187.213 147.151 188.144 146.281 188.605 145.153C190.205 140.525 195.164 126.235 196.766 121.608C196.967 121.033 196.868 120.597 196.561 120.371Z" fill="#455A64"/>
<path d="M173.459 149.279L181.62 125.734C182.081 124.606 183.012 123.736 184.168 123.352L195.508 120.268C196.559 119.982 197.122 120.585 196.766 121.614C195.166 126.242 190.208 140.532 188.605 145.159C188.143 146.287 187.212 147.157 186.056 147.541L174.716 150.625C173.665 150.91 173.102 150.308 173.459 149.279Z" fill="#27DEBF"/>
<path d="M182.934 124.006C182.347 124.453 181.893 125.051 181.618 125.736L173.454 149.274C173.265 149.657 173.309 150.115 173.568 150.455L172.553 149.585L172.564 149.574C172.268 149.245 172.207 148.767 172.409 148.374L180.572 124.826C180.828 124.185 181.246 123.621 181.785 123.189L182.934 124.006Z" fill="#37474F"/>
<path d="M193.446 131.095C192.646 133.495 189.796 135.095 185.112 136.204C180.428 137.313 177.833 142.288 178.591 143.804C179.349 145.32 186.916 146.724 189.943 146.291C192.97 145.858 196.016 141.482 196.932 140.128C197.848 138.774 198.917 129.316 197.944 128.019C197.159 127.211 196.047 126.805 194.926 126.919L193.446 131.095Z" fill="#F28F8F"/>
</svg>
