<svg width="21" height="14" viewBox="0 0 21 14" fill="none" xmlns="http://www.w3.org/2000/svg">
<g opacity="0.34">
<path fill-rule="evenodd" clip-rule="evenodd" d="M0.740104 6.91601C4.1921 3.14601 7.0791 0.846008 10.7401 0.846008C15.0981 0.846008 18.3981 4.02501 20.7861 6.91801C21.0167 7.19338 21.0069 7.59721 20.7631 7.86101C18.4221 10.423 15.1301 13.961 10.7401 13.961C6.3001 13.961 3.6951 11.151 0.740104 7.88601C0.489627 7.61118 0.489627 7.19083 0.740104 6.91601ZM6.99532 9.06048C7.68066 10.6096 9.2481 11.5777 10.9401 11.497H10.9411C13.0515 11.3958 14.7395 9.70744 14.8401 7.59701C14.9208 5.90501 13.9527 4.33757 12.4036 3.65222C10.8545 2.96688 9.04341 3.30474 7.84562 4.50253C6.64784 5.70031 6.30997 7.51139 6.99532 9.06048Z" fill="white"/>
<path d="M10.7502 5.26301C10.7494 4.99986 10.7972 4.73882 10.8912 4.49301C10.8452 4.49301 10.8002 4.49301 10.7502 4.49301C9.14082 4.49301 7.83618 5.79765 7.83618 7.40701C7.83618 9.01637 9.14082 10.321 10.7502 10.321C12.3595 10.321 13.6642 9.01637 13.6642 7.40701C13.6642 7.34801 13.6642 7.28901 13.6642 7.22901C13.4036 7.34635 13.121 7.40702 12.8352 7.40701C12.2743 7.39937 11.7395 7.16915 11.3484 6.76703C10.9574 6.36491 10.7422 5.82386 10.7502 5.26301Z" fill="white"/>
</g>
</svg>
