<svg width="343" height="300" viewBox="0 0 343 300" fill="none" xmlns="http://www.w3.org/2000/svg">
<path d="M266.299 15.796C263.993 2.138 242.96 -4.028 243.372 4.886L146.953 5.451C140.275 5.49 134.86 11.498 134.853 18.877L134.653 272.459C134.647 280.103 140.153 286.353 146.963 286.412L245.391 287.256C246.179 288.749 247.425 289.95 248.947 290.681C260.235 290.922 265.647 285.347 267.627 279.045C268.294 277.278 268.626 275.402 268.605 273.513C268.211 270.214 267.011 18.998 266.299 15.796Z" fill="#408BFF"/>
<path d="M247.895 290.72L134.914 289.992C127.864 289.947 122.161 283.528 122.174 275.662L122.598 14.876C122.61 7.29099 128.223 1.12999 135.137 1.10799L245.924 0.747989C252.893 0.724989 258.591 6.87799 258.65 14.497L260.658 276.488C260.717 284.39 255.002 290.765 247.895 290.72Z" fill="#408BFF"/>
<path d="M249.454 288.823C248.981 288.886 248.504 288.916 248.027 288.912L135.08 288.061C129.022 288.015 124.07 282.388 124.08 275.522L124.471 15.022C124.481 8.40101 129.354 2.99701 135.297 2.97101L246.076 2.48901C246.249 2.48901 246.424 2.48901 246.597 2.50001C249.426 2.64994 252.073 3.93843 253.937 6.07201C255.954 8.36378 257.063 11.3133 257.058 14.366L259.039 276.623C259.086 282.836 254.979 288.082 249.454 288.823Z" fill="black"/>
<path d="M253.173 15.683L255.078 277.027L127.838 276.264L128.163 15.682L253.173 15.683Z" fill="#AAE0FF"/>
<path d="M191.596 54.863L191.55 54.815C185.322 61.486 175.385 66.953 164.75 69.282C164.75 69.992 164.729 73.927 164.65 92.063C164.542 116.256 187.567 128.079 191.141 129.893C180.64 87.384 188.866 61.672 191.596 54.863Z" fill="#F5F9FF"/>
<path d="M191.595 54.863C188.865 61.672 180.639 87.384 191.14 129.894C194.603 128.3 217.919 116.494 218.027 92.303C218.108 74.167 218.127 70.232 218.127 69.522C207.542 67.103 197.766 61.568 191.595 54.863Z" fill="#E3EEFF"/>
<path fill-rule="evenodd" clip-rule="evenodd" d="M190.938 130.294L191.132 130.394L191.318 130.298C194.086 129.023 218.356 117.136 218.467 92.298L218.497 85.498C218.521 80.2843 218.537 76.7355 218.548 74.3285C218.564 71.0238 218.569 69.8715 218.569 69.518V69.157L218.217 69.077C207.963 66.734 198.13 61.305 191.917 54.553L191.541 54.153L191.21 54.507C184.952 61.21 175.021 66.569 164.644 68.842L164.292 68.919L164.192 92.061C164.15 102.365 168.186 111.66 176.192 119.688C180.52 123.975 185.497 127.554 190.938 130.294ZM165.101 92.066L165.201 69.644C175.44 67.33 185.228 62.064 191.549 55.473C197.821 62.135 207.532 67.491 217.678 69.879C217.676 70.2705 217.673 70.9472 217.668 72.0892C217.658 74.3251 217.64 78.3447 217.608 85.5L217.578 92.3C217.472 116.073 194.651 127.744 191.151 129.393C183.124 125.28 165.001 113.597 165.101 92.066Z" fill="white"/>
<path fill-rule="evenodd" clip-rule="evenodd" d="M190.766 125.362L191.177 125.576L191.581 125.359L191.861 125.215L191.922 125.183C196.242 122.916 200.216 120.042 203.722 116.649C210.935 109.599 214.612 101.415 214.652 92.315L214.742 72.286L214.071 72.107C205.931 70.0414 198.405 66.0536 192.124 60.478L191.47 59.861L190.851 60.429C184.512 65.9724 176.932 69.9089 168.751 71.906L168.084 72.083L167.994 92.112C167.953 101.209 171.557 109.428 178.706 116.543C182.27 120.06 186.334 123.032 190.766 125.362ZM169.794 92.12L169.877 73.476L169.878 73.477C177.82 71.4264 185.197 67.6103 191.459 62.313C197.673 67.6656 205.015 71.5473 212.938 73.669L212.855 92.313C212.817 100.909 209.322 108.667 202.468 115.367C199.113 118.614 195.314 121.368 191.184 123.546C187.073 121.333 183.299 118.545 179.975 115.266C173.181 108.504 169.755 100.72 169.794 92.12Z" fill="#296ACC"/>
<path fill-rule="evenodd" clip-rule="evenodd" d="M180.728 104.66V88.78H202.318V104.66C202.318 106.428 180.728 106.428 180.728 104.66ZM192.615 101.713V97.213V97.211C193.758 96.7016 194.391 95.4632 194.133 94.2383C193.876 93.0135 192.798 92.1347 191.546 92.129C190.295 92.1232 189.209 92.9921 188.94 94.2146C188.671 95.437 189.292 96.6812 190.431 97.201V101.713C190.431 102.316 190.92 102.805 191.523 102.805C192.126 102.805 192.615 102.316 192.615 101.713Z" fill="#296ACC"/>
<path d="M200.428 87.648H198.242V86.578C198.242 82.8672 195.234 79.859 191.523 79.859C187.812 79.859 184.804 82.8672 184.804 86.578V87.648H182.618V86.578C182.618 81.6602 186.605 77.6735 191.523 77.6735C196.44 77.6735 200.427 81.6602 200.427 86.578L200.428 87.648Z" fill="#296ACC"/>
<rect x="159.295" y="142.485" width="62.409" height="12.335" fill="white"/>
<circle cx="171.771" cy="149.077" r="2.694" fill="#296ACC"/>
<circle cx="181.007" cy="149.077" r="2.694" fill="#296ACC"/>
<circle cx="190.244" cy="149.077" r="2.694" fill="#296ACC"/>
<circle cx="199.48" cy="149.077" r="2.694" fill="#296ACC"/>
<circle cx="208.716" cy="149.077" r="2.694" fill="#296ACC"/>
<path d="M198.597 172.16H181.897C180.76 172.16 179.669 171.709 178.865 170.904C178.06 170.1 177.609 169.009 177.609 167.872C177.609 165.504 179.529 163.584 181.897 163.584H198.597C200.965 163.585 202.884 165.504 202.884 167.872C202.884 169.009 202.433 170.1 201.629 170.904C200.825 171.708 199.734 172.16 198.597 172.16Z" fill="#296ACC"/>
<rect x="165.656" y="186.99" width="51.472" height="3.86" fill="#80D1FF"/>
<rect x="149.071" y="195.569" width="85.357" height="3.86" fill="#80D1FF"/>
<rect x="152.645" y="204.147" width="78.208" height="3.86" fill="#80D1FF"/>
<path d="M89.4209 190.155C83.2429 196.408 77.8499 202.564 72.6659 214.006C71.2299 210.279 71.5819 211.098 68.1179 202.906C66.5249 199.053 56.2269 201.232 55.9669 204.622C55.9669 204.622 54.1169 228.231 65.0199 237.529C75.9229 246.827 106.66 208.006 106.66 208.006C116.479 194.587 99.9849 181.77 89.4209 190.155Z" fill="#007382"/>
<path d="M168.545 273.449C156.956 296.061 72.4189 288.01 57.8689 275.704C47.1159 259.919 86.0689 252.204 86.9319 252.181C106.078 251.659 132.458 253.361 142.18 253.361C164.785 256.834 171.09 264.841 168.545 273.449Z" fill="#092E66"/>
<path d="M86.752 263.96C102.476 267.687 116.428 268.909 133.578 266.28C133.578 266.28 107.311 277.89 107.168 278.32C107.025 278.75 86.752 263.96 86.752 263.96Z" fill="#051733"/>
<path d="M166.529 276.07C149.596 294.819 77.329 293.016 91.229 275.97C103.844 274.393 138.505 265.97 141.561 264.31C152.215 255.675 173.416 265.923 166.529 276.07Z" fill="#092E66"/>
<path d="M155.686 289.469C154.848 285.697 150.498 283.293 145.853 281.78C142.276 286.208 140.324 291.727 140.321 297.419C150.629 299.733 157.126 295.949 155.686 289.469Z" fill="#73CCFF"/>
<path d="M132.772 280.094C132.772 280.094 128.451 279.356 127.186 284.521C126.757 286.274 125.5 289.791 129.715 292.531C133.915 294.847 136.829 296.631 140.315 297.419C140.317 291.727 142.27 286.208 145.847 281.781C141.6 280.554 137.191 279.985 132.772 280.094Z" fill="#AAE0FF"/>
<path d="M131.419 280.69C139.665 282.667 135.429 292.833 131.182 292.231C135.808 292.887 49.294 292.897 57.733 266.731H57.767C60.993 261.22 71.073 256.458 79.238 260.053C98.15 270.089 115.999 277.053 131.419 280.69Z" fill="#092E66"/>
<path d="M134.509 291.669C134.509 291.669 127.151 291.094 129.702 285.18C132.253 279.266 137.429 282.735 137.429 282.735C137.429 282.735 140.191 288.77 134.509 291.669Z" fill="#AAE0FF"/>
<path d="M134.863 292.177C134.682 292.177 134.534 292.034 134.527 291.853C134.437 288.53 135.607 285.296 137.802 282.8C137.932 282.671 138.141 282.669 138.273 282.796C138.404 282.923 138.41 283.132 138.286 283.266C136.236 285.642 135.137 288.692 135.199 291.829C135.202 291.918 135.17 292.005 135.109 292.07C135.048 292.135 134.964 292.174 134.875 292.177H134.863Z" fill="white"/>
<path d="M136.942 292.972C136.761 292.972 136.613 292.828 136.607 292.647C136.517 289.325 137.687 286.091 139.882 283.595C140.012 283.466 140.221 283.464 140.353 283.591C140.484 283.718 140.49 283.927 140.366 284.061C138.316 286.437 137.217 289.487 137.279 292.624C137.282 292.713 137.25 292.8 137.189 292.865C137.128 292.93 137.044 292.969 136.955 292.972H136.942Z" fill="white"/>
<path d="M139.144 293.522C138.963 293.522 138.815 293.379 138.808 293.198C138.718 289.875 139.888 286.642 142.082 284.145C142.212 284.016 142.421 284.014 142.553 284.141C142.684 284.268 142.69 284.477 142.566 284.611C140.517 286.987 139.417 290.037 139.479 293.174C139.485 293.359 139.34 293.514 139.155 293.521L139.144 293.522Z" fill="white"/>
<path d="M132.29 291.895C130.527 292.871 85.943 294.944 61.124 278.959C53.047 273.759 57.296 266.291 57.296 266.291C57.296 266.291 63.074 287.934 132.29 291.895Z" fill="#051733"/>
<path d="M127.311 280.487C127.263 280.487 127.214 280.48 127.168 280.466C95.031 270.947 80.227 261.09 80.082 260.991C79.8514 260.835 79.7907 260.522 79.9465 260.292C80.1022 260.061 80.4154 260 80.646 260.156C80.791 260.256 95.488 270.031 127.454 279.5C127.71 279.556 127.879 279.801 127.841 280.06C127.803 280.319 127.572 280.505 127.311 280.487Z" fill="#051733"/>
<path d="M106.958 273.29C106.682 273.314 106.438 273.11 106.414 272.834C106.39 272.558 106.594 272.314 106.87 272.29C107.07 272.254 127.336 268.608 135.18 265.246C135.436 265.136 135.733 265.254 135.843 265.51C135.954 265.765 135.836 266.063 135.58 266.173C127.629 269.581 107.886 273.133 107.05 273.283C107.02 273.288 106.989 273.29 106.958 273.29Z" fill="#051733"/>
<path d="M143.384 253.337C144.089 258.743 105.607 260.037 85.925 252.197C82.981 239.997 72.825 184.453 103.172 184.621C135.941 184.802 140.269 238.605 143.384 253.337Z" fill="white"/>
<path d="M57.1169 204.396L56.6639 197.52L63.8919 196.431L66.6229 202.613C66.9319 204.442 57.4259 206.224 57.1169 204.396Z" fill="#F7A594"/>
<path d="M64.2229 197.5L65.9739 186.357C65.9739 186.357 63.4269 185.641 63.1879 188.665C62.9489 191.689 58.0139 193.6 59.2879 196.545C60.5619 199.49 64.2229 197.5 64.2229 197.5Z" fill="#F7A594"/>
<path d="M56.8999 197.819C56.8999 197.819 51.4799 189.539 51.0099 184.845C50.9609 183.126 51.7259 182.616 51.7259 182.616L64.0629 194.716C64.0629 194.716 64.8629 197.183 63.9039 198.216C62.9363 199.122 61.6401 199.592 60.317 199.517C58.9938 199.442 57.7591 198.828 56.8999 197.819Z" fill="#F7A594"/>
<path d="M64.523 194.884C64.523 194.884 64.648 196.844 63.523 196.441C60.223 195.475 60.032 190.635 60.032 190.635L64.523 194.884Z" fill="#CC7767"/>
<path d="M69.364 197.323L46.414 176.006C45.9572 175.974 45.501 176.075 45.101 176.298L69.301 198.498C69.4009 198.115 69.4223 197.715 69.364 197.323Z" fill="#404040"/>
<path d="M45.1009 176.298C44.7519 176.539 44.5299 176.967 44.7889 177.757C45.4289 179.709 65.6889 198.374 67.7389 199.072C68.7389 199.412 69.1459 199.002 69.3049 198.494L45.1009 176.298Z" fill="black"/>
<path d="M51.056 183.691C51.056 183.691 51.29 181.774 54.744 184.126C58.944 186.982 61.757 192.078 60.811 193.383C59.604 195.048 50.141 187.511 51.056 183.691Z" fill="#F7A594"/>
<path d="M96.9539 185.541C75.1869 190.315 81.0539 242.3 82.5799 253.565C86.6959 255.204 99.9889 258.443 105.219 259.33C94.7549 234.578 89.2619 187.903 96.9539 185.541Z" fill="#007382"/>
<path d="M109.724 186.281C107.305 198.074 94.335 197.772 94.167 191.153C94.139 190.975 94.1276 190.796 94.133 190.616L93.092 176.302L92.958 174.556L94.1 174.321L104.415 172.272L104.785 172.205L105.085 173.112L106.396 176.841L109.724 186.281Z" fill="#F7A594"/>
<path d="M109.424 185.383C105.324 195.022 110.744 245.351 114.499 260.372C124.652 263.803 139.966 258.786 144.059 253.637C141.155 239.901 136.511 191.915 109.424 185.383Z" fill="#007382"/>
<path d="M108.399 202.891C106.817 211.557 109.831 226.591 112.175 234.4C118.395 238.975 128.06 236.614 128.06 229.583C128.279 222.366 127.669 215.148 126.242 208.071C124.74 189.964 109.184 190.132 108.399 202.891Z" fill="#007382"/>
<path d="M98.872 214.559C92.466 212.249 89.167 221.449 93.831 224.642C104.922 232.126 122.147 242.19 125.21 235.777C129.692 226.398 113.471 219.185 98.872 214.559Z" fill="#007382"/>
<path d="M92.9669 221.797L88.2249 219.289C85.2439 216.979 90.4929 212.226 92.6249 212.989L96.3139 215.304C98.1779 217.077 95.5259 221.6 92.9669 221.797Z" fill="#F7A594"/>
<path d="M88.678 219.392C84.796 218.565 86.139 214.645 87.013 210.167C83.889 196.733 100.981 219.75 88.678 219.392Z" fill="#F7A594"/>
<path d="M90.385 208.446C90.385 208.446 89.118 206.471 86.328 202.062C85.071 202.3 84.399 204.507 86.088 206.44C87.574 208.137 89.723 209.288 90.385 208.446Z" fill="#F7A594"/>
<path d="M86.571 207.269C83.771 205.681 81.771 210.304 82.507 213.914C83.634 219.438 87.744 216.714 88.972 215.235C91.219 212.537 90.006 209.219 86.571 207.269Z" fill="#F7A594"/>
<path d="M108.761 218.415C108.597 218.415 108.457 218.296 108.43 218.134C108.41 218.011 106.422 205.765 108.879 197.49C108.936 197.317 109.119 197.221 109.294 197.273C109.468 197.324 109.57 197.505 109.523 197.681C107.111 205.807 109.073 217.902 109.093 218.024C109.123 218.207 109 218.379 108.817 218.41C108.798 218.413 108.78 218.415 108.761 218.415Z" fill="#003331"/>
<path d="M120.443 237.325C114.908 237.325 108.343 233.847 107.964 233.641C107.858 233.584 107.791 233.475 107.787 233.355C107.783 233.235 107.844 233.123 107.946 233.059C108.048 232.996 108.176 232.992 108.282 233.049C108.409 233.117 121.037 239.812 125.655 234.749C129.706 230.306 126.688 211.062 126.655 210.868C126.626 210.685 126.751 210.512 126.934 210.483C127.117 210.454 127.29 210.579 127.319 210.762C127.447 211.562 130.419 230.521 126.149 235.201C124.639 236.693 122.561 237.466 120.443 237.325Z" fill="#003331"/>
<path d="M115.954 221.325C115.907 221.325 115.861 221.315 115.818 221.296C107.727 217.696 97.595 214.441 97.494 214.408C97.3721 214.379 97.2767 214.284 97.2466 214.162C97.2164 214.04 97.2565 213.912 97.3506 213.829C97.4447 213.746 97.577 213.723 97.694 213.768C97.794 213.801 107.961 217.068 116.086 220.682C116.231 220.747 116.311 220.904 116.278 221.059C116.245 221.214 116.108 221.325 115.949 221.325H115.954Z" fill="white"/>
<path d="M94.1289 190.841C93.8289 187.678 92.0899 175.769 94.0999 174.319L104.415 172.27C106.78 185.269 97.9689 191.759 94.1289 190.841Z" fill="#D97661"/>
<path d="M108.255 169.95C107.755 180.579 98.289 188.828 91.248 188.438C84.207 188.048 75.553 179.063 76.054 168.438C76.555 157.813 84.169 149.532 93.061 149.95C101.953 150.368 108.756 159.321 108.255 169.95Z" fill="#F7A594"/>
<path d="M98.6819 151.448C89.7819 144.143 83.7549 149.239 78.1959 154.748C74.2959 158.613 71.5249 161.394 67.2469 161.52C74.0689 172.704 91.0529 167.974 97.4009 158.391C97.1859 164.265 103.443 169.923 108.255 169.952C110.589 163.672 107.721 150.042 98.6819 151.448Z" fill="#0E0E0E"/>
<circle cx="106.582" cy="170.396" r="3.67" transform="rotate(-15.268 106.582 170.396)" fill="#F7A594"/>
<path d="M86.9019 180.713C86.6396 180.722 86.3809 180.65 86.1619 180.505C85.2409 179.855 86.1449 174.405 86.4439 172.746C86.4652 172.628 86.5782 172.549 86.6964 172.57C86.8146 172.592 86.8932 172.705 86.8719 172.823C86.2829 176.087 85.9399 179.816 86.4129 180.15C87.0349 180.588 88.5019 179.809 89.0129 179.472C89.1131 179.413 89.2418 179.443 89.3055 179.54C89.3693 179.637 89.3457 179.767 89.2519 179.836C88.551 180.314 87.7446 180.615 86.9019 180.713Z" fill="#BD4A31"/>
<path d="M93.4029 171.502C93.5899 172.351 94.0829 172.965 94.5029 172.872C94.9229 172.779 95.1129 172.015 94.9259 171.166C94.7389 170.317 94.2449 169.703 93.8259 169.796C93.4069 169.889 93.2159 170.653 93.4029 171.502Z" fill="#0E0E0E"/>
<path d="M79.94 174.823C80.115 175.616 80.575 176.188 80.968 176.101C81.361 176.014 81.537 175.301 81.362 174.509C81.187 173.717 80.727 173.144 80.334 173.231C79.941 173.318 79.765 174.032 79.94 174.823Z" fill="#0E0E0E"/>
<path d="M93.1619 182.896C92.9615 182.898 92.7611 182.887 92.5619 182.864C92.4429 182.848 92.3592 182.739 92.3749 182.62C92.3907 182.501 92.4999 182.417 92.6189 182.433C93.9712 182.57 95.3258 182.195 96.4139 181.38C97.4926 180.362 98.0792 178.928 98.0229 177.446C98.0228 177.388 98.047 177.332 98.0897 177.292C98.1324 177.252 98.1897 177.232 98.2479 177.236C98.3055 177.238 98.3599 177.263 98.3991 177.305C98.4383 177.347 98.4591 177.403 98.4569 177.461C98.5762 178.912 98.0611 180.343 97.0447 181.385C96.0283 182.427 94.6103 182.978 93.1569 182.895L93.1619 182.896Z" fill="#803221"/>
<path d="M91.8289 169.306H91.8189C91.7614 169.303 91.7072 169.278 91.6684 169.235C91.6295 169.193 91.6092 169.137 91.6119 169.079C91.6641 168.194 92.2848 167.445 93.1449 167.23C94.0001 166.933 94.9497 167.217 95.5009 167.935C95.5465 167.998 95.555 168.08 95.5234 168.151C95.4917 168.222 95.4246 168.271 95.3474 168.279C95.2701 168.287 95.1945 168.253 95.1489 168.19C94.7042 167.624 93.9474 167.405 93.2689 167.646C92.59 167.814 92.0964 168.4 92.0459 169.098C92.0406 169.214 91.9451 169.306 91.8289 169.306Z" fill="#803221"/>
<path d="M78.9139 172.402H78.8949C78.8369 172.398 78.7831 172.37 78.7455 172.326C78.7079 172.282 78.6897 172.224 78.6949 172.166C78.6631 171.217 79.333 170.388 80.2679 170.22C81.1377 170.141 81.9432 170.684 82.1959 171.52C82.2357 171.633 82.1762 171.757 82.0629 171.797C81.9497 171.837 81.8257 171.777 81.7859 171.664C81.5989 171.023 80.9874 170.602 80.3219 170.655C79.8059 170.72 79.2219 171.161 79.1279 172.207C79.1167 172.317 79.0245 172.401 78.9139 172.402Z" fill="#803221"/>
<rect y="121.561" width="55.778" height="27.687" rx="13.843" fill="#AAE0FF"/>
<path d="M46.5719 144.774V157.265L33.8409 144.534L46.5719 144.774Z" fill="#AAE0FF"/>
<circle cx="10.671" cy="135.662" r="2.431" transform="rotate(-45 10.671 135.662)" fill="white"/>
<circle cx="18.8208" cy="135.662" r="2.431" transform="rotate(-76.774 18.8208 135.662)" fill="white"/>
<circle cx="26.9697" cy="135.662" r="2.431" transform="rotate(-76.774 26.9697 135.662)" fill="white"/>
<circle cx="35.1201" cy="135.662" r="2.431" transform="rotate(-80.783 35.1201 135.662)" fill="white"/>
<circle cx="43.27" cy="135.662" r="2.431" transform="rotate(-45 43.27 135.662)" fill="white"/>
<rect x="67.45" y="78.117" width="40.444" height="32.803" rx="16.4015" fill="#AAE0FF"/>
<path d="M82.0809 109.9L86.7149 118.031L91.8149 109.9H82.0809Z" fill="#AAE0FF"/>
<path d="M86.797 93.751L78.724 87.665H94.829L86.797 93.751Z" fill="#296ACC"/>
<path d="M95.506 89.237V99.798H78.049V89.237L86.797 95.799L95.506 89.237Z" fill="#296ACC"/>
<path d="M340.804 299.781H42.653C41.7252 299.781 40.973 299.029 40.973 298.101C40.973 297.173 41.7252 296.421 42.653 296.421H340.804C341.732 296.421 342.484 297.173 342.484 298.101C342.484 299.029 341.732 299.781 340.804 299.781Z" fill="#2E5B99"/>
</svg>
