<svg width="25" height="24" viewBox="0 0 25 24" fill="none" xmlns="http://www.w3.org/2000/svg">
<path fill-rule="evenodd" clip-rule="evenodd" d="M23.13 0.294006C23.4523 0.297567 23.7474 0.475548 23.901 0.759006C24.0477 1.05098 24.031 1.39845 23.857 1.67501L15.641 14.836V22.801C15.6471 23.2897 15.2576 23.6917 14.769 23.701H8.95296C8.46432 23.6917 8.07482 23.2897 8.08096 22.801V14.791L0.708956 1.64401C0.548187 1.36555 0.548187 1.02247 0.708956 0.744006C0.860639 0.467945 1.14997 0.295723 1.46496 0.294006H23.13ZM13.897 14.586C13.8994 14.4093 13.9495 14.2366 14.042 14.086L21.531 2.09501H2.97696L9.70996 14.101C9.78572 14.2389 9.8256 14.3937 9.82596 14.551V21.901H13.897V14.586Z" fill="white"/>
<path d="M23.901 0.759006L24.1244 0.646678L24.1208 0.639933L23.901 0.759006ZM23.13 0.294006L23.1327 0.0440063H23.13V0.294006ZM23.857 1.67501L23.6454 1.54184L23.6449 1.54262L23.857 1.67501ZM15.641 14.836L15.4289 14.7036L15.391 14.7644V14.836H15.641ZM15.641 22.801H15.3909L15.391 22.8041L15.641 22.801ZM14.769 23.701V23.9511L14.7737 23.951L14.769 23.701ZM8.95296 23.701L8.94819 23.951H8.95296V23.701ZM8.08096 22.801L8.33096 22.8041V22.801H8.08096ZM8.08096 14.791H8.33096V14.7257L8.29901 14.6687L8.08096 14.791ZM0.708956 1.64401L0.927031 1.52172L0.925462 1.51901L0.708956 1.64401ZM0.708956 0.744006L0.925511 0.869034L0.92806 0.864394L0.708956 0.744006ZM1.46496 0.294006V0.0440026L1.46359 0.0440101L1.46496 0.294006ZM14.042 14.086L13.8299 13.9536L13.8289 13.9552L14.042 14.086ZM13.897 14.586L13.647 14.5826V14.586H13.897ZM21.531 2.09501L21.743 2.22744L21.9818 1.84501H21.531V2.09501ZM2.97696 2.09501V1.84501H2.55013L2.7589 2.21729L2.97696 2.09501ZM9.70996 14.101L9.92908 13.9806L9.92801 13.9787L9.70996 14.101ZM9.82596 14.551H10.076L10.076 14.5504L9.82596 14.551ZM9.82596 21.901H9.57596V22.151H9.82596V21.901ZM13.897 21.901V22.151H14.147V21.901H13.897ZM24.1208 0.639933C23.924 0.276673 23.5458 0.0485846 23.1327 0.0440216L23.1272 0.543991C23.3588 0.546549 23.5708 0.674423 23.6811 0.878079L24.1208 0.639933ZM24.0685 1.80818C24.2892 1.45751 24.3104 1.01693 24.1243 0.646731L23.6776 0.871282C23.785 1.08502 23.7728 1.33938 23.6454 1.54184L24.0685 1.80818ZM15.853 14.9684L24.069 1.80739L23.6449 1.54262L15.4289 14.7036L15.853 14.9684ZM15.891 22.801V14.836H15.391V22.801H15.891ZM14.7737 23.951C15.3998 23.939 15.8988 23.424 15.8909 22.7979L15.391 22.8041C15.3954 23.1554 15.1154 23.4444 14.7642 23.4511L14.7737 23.951ZM8.95296 23.951H14.769V23.451H8.95296V23.951ZM7.83098 22.7979C7.82311 23.424 8.32214 23.939 8.94819 23.951L8.95772 23.4511C8.60649 23.4444 8.32653 23.1554 8.33094 22.8041L7.83098 22.7979ZM7.83096 14.791V22.801H8.33096V14.791H7.83096ZM0.490898 1.76628L7.8629 14.9133L8.29901 14.6687L0.927014 1.52173L0.490898 1.76628ZM0.49245 0.619006C0.287022 0.974818 0.287022 1.4132 0.49245 1.76901L0.925462 1.51901C0.809351 1.3179 0.809351 1.07012 0.925462 0.869006L0.49245 0.619006ZM1.46359 0.0440101C1.05789 0.0462211 0.685222 0.268047 0.489852 0.623618L0.92806 0.864394C1.03606 0.667844 1.24206 0.545225 1.46632 0.544003L1.46359 0.0440101ZM23.13 0.0440063H1.46496V0.544006H23.13V0.0440063ZM13.8289 13.9552C13.7129 14.1441 13.65 14.3609 13.647 14.5826L14.1469 14.5894C14.1487 14.4578 14.1861 14.329 14.255 14.2169L13.8289 13.9552ZM21.3189 1.96257L13.8299 13.9536L14.254 14.2184L21.743 2.22744L21.3189 1.96257ZM2.97696 2.34501H21.531V1.84501H2.97696V2.34501ZM9.92801 13.9787L3.19501 1.97272L2.7589 2.21729L9.4919 14.2233L9.92801 13.9787ZM10.076 14.5504C10.0755 14.3512 10.025 14.1553 9.92907 13.9806L9.49084 14.2214C9.54643 14.3226 9.5757 14.4361 9.57596 14.5516L10.076 14.5504ZM10.076 21.901V14.551H9.57596V21.901H10.076ZM13.897 21.651H9.82596V22.151H13.897V21.651ZM13.647 14.586V21.901H14.147V14.586H13.647Z" fill="white"/>
</svg>
